<?xml version="1.0" encoding="UTF-8"?>
<svg id="Calque_1" xmlns="http://www.w3.org/2000/svg" version="1.1" viewBox="0 0 72.9 1080">
  <!-- Generator: Adobe Illustrator 29.1.0, SVG Export Plug-In . SVG Version: 2.1.0 Build 142)  -->
  <defs>
    <style>
      .st0 {
        fill: #95c11f;
        stroke: #95c11f;
        stroke-linecap: round;
        stroke-linejoin: round;
        stroke-width: 7px;
      }
    </style>
  </defs>
  <path class="st0" d="M28,4.9c11.6-1,21.7,8.2,22,19.8,1.1,34.6,1.6,73,2,107.9.3,122.1-2.1,267.8-2.7,390.1.8,9.2,9.2,16.9,18.5,16.9,0,0,.1,0,.1,0,0,.2,0-.3.1.4,0,.7,0,.2-.1.3h-.1c-9.8.1-18.6-7.8-19.7-17.5-1.4-122.2-3-268.2-3-390.2.4-34.8.9-73.2,2-107.9.5-10.4-8.6-19.3-19-19.1,0,0,0-.7,0-.7h0Z"/>
  <path class="st0" d="M28,1074.4c10.5,0,19.4-8.6,19-19.1-1.1-34.6-1.6-73-2-107.9-.2-106.4,1.7-242,2.4-348.7,0,0,.4-34.9.4-34.9v-4.4c.1-1.5.2-3,.6-4.5,2-8.7,10.3-15.4,19.3-15.3,0,0,.1,0,.1,0,0,.2,0-.4.1.3,0,.7,0,.2-.1.4h-.1s-.3,0-.3,0c-10,.2-18.5,9-18.3,19,1.1,108.1,2.2,244.9,3,353.1,0,46.5-.8,95.2-2.1,141.7.1,8.6-5.2,16.7-13.2,19.7-2.8,1.1-5.9,1.4-8.8,1.2v-.7h0Z"/>
</svg>