<?xml version="1.0" encoding="UTF-8"?>
<svg id="Capa_1" xmlns="http://www.w3.org/2000/svg" version="1.1" xmlns:xlink="http://www.w3.org/1999/xlink" viewBox="0 0 1002 1002">
  <!-- Generator: Adobe Illustrator 29.1.0, SVG Export Plug-In . SVG Version: 2.1.0 Build 142)  -->
  <defs>
    <style>
      .st0 {
        stroke-miterlimit: 10;
        stroke-width: 6px;
      }

      .st0, .st1, .st2, .st3, .st4 {
        fill: none;
      }

      .st0, .st1, .st4 {
        stroke: #6b052f;
      }

      .st5 {
        clip-path: url(#clippath-4);
      }

      .st6 {
        fill: #7a7674;
      }

      .st7 {
        fill: #4582a1;
      }

      .st8 {
        fill: #665952;
      }

      .st9 {
        fill: #5995ad;
      }

      .st10, .st11 {
        fill: #fff;
      }

      .st12 {
        fill: #ea5e5f;
      }

      .st1 {
        stroke-miterlimit: 10;
        stroke-width: 6px;
      }

      .st13 {
        fill: #502911;
      }

      .st14 {
        fill: #f5af98;
      }

      .st15 {
        clip-path: url(#clippath-1);
      }

      .st11 {
        opacity: .1;
      }

      .st11, .st16 {
        isolation: isolate;
      }

      .st17 {
        clip-path: url(#clippath-5);
      }

      .st18 {
        fill: #4c4542;
      }

      .st19 {
        fill: #ef8066;
      }

      .st20 {
        clip-path: url(#clippath-3);
      }

      .st3 {
        stroke: #b8b8c1;
        stroke-linecap: round;
        stroke-linejoin: round;
        stroke-width: 2px;
      }

      .st21 {
        fill: #243746;
      }

      .st4 {
        stroke-miterlimit: 10;
        stroke-width: 6px;
      }

      .st22 {
        fill: #dca15f;
      }

      .st23 {
        fill: #f2f2f4;
      }

      .st24 {
        clip-path: url(#clippath-2);
      }

      .st25 {
        fill: #eb6d54;
      }

      .st26 {
        clip-path: url(#clippath);
      }
    </style>
    <clipPath id="clippath">
      <rect class="st2" x="474.4" y="854.2" width="77.6" height="21.9"/>
    </clipPath>
    <clipPath id="clippath-1">
      <rect class="st2" x="474.4" y="854.2" width="77.6" height="21.9"/>
    </clipPath>
    <clipPath id="clippath-2">
      <rect class="st2" x="534.8" y="929.8" width="37.9" height="7.2"/>
    </clipPath>
    <clipPath id="clippath-3">
      <rect class="st2" x="534.8" y="929.8" width="37.8" height="7.2"/>
    </clipPath>
    <clipPath id="clippath-4">
      <rect class="st2" x="458.1" y="929.8" width="38" height="7.9"/>
    </clipPath>
    <clipPath id="clippath-5">
      <rect class="st2" x="458.1" y="929.8" width="38" height="7.9"/>
    </clipPath>
  </defs>
  <path class="st18" d="M213,643s15,49,8,96c-12.3,82.5-21.5,79.9-25.3,107.9-2.3,17,10.9,32.1,28.1,32,106.2-.5,435.2-2.2,541.6-2.7,18.2,0,32.4-15.6,31.1-33.7,0,0-12.8-61.5-15.6-114.6-1.8-33.9.7-83.3.7-83.3l-568.6-1.5h0Z"/>
  <path class="st6" d="M217.8,612.3s-28.7-124.5,3.2-304.3c31.9-179.9,256-185.1,298.8-183.4,42.8,1.7,252.8,43.6,266.2,218.4,13.5,174.8-10.6,264.2-10.6,264.2l-557.6,5.1h0Z"/>
  <path class="st23" d="M438.6,905.9s78.6-26.8,153.7,0l-4.4,6.8h-143.9l-5.4-6.8Z"/>
  <image class="st16" width="117" height="118" transform="translate(287 643)" xlink:href="collab_isa-1.png"/>
  <image class="st16" width="117" height="118" transform="translate(595 643)" xlink:href="collab_isa-2.png"/>
  <polygon class="st14" points="474.4 851.3 551.9 852.9 551.9 905.9 474.4 905.9 474.4 851.3"/>
  <path class="st14" d="M766.2,1349c-53.4-10.5-135.5-216.4-141.4-264.3-.9-7.3-1.4-11.6-1.4-11.6l-215.4-1.8s0,1.7-.2,4.9c-1.4,31.1-81.2,270.8-125.1,261.4-47.1-10.1,46.7-47.5,62.7-267.6,5.2-71.9,18.4-134.6,18.4-134.6l109.7-32.2h78.2c0,0,114.1,30.2,114.1,30.2,0,0,16.2,68.6,21.4,144.3,6.6,94.8,117.7,247.2,78.9,271.4h0Z"/>
  <rect class="st19" x="474.4" y="854.2" width="77.6" height="21.9"/>
  <g class="st26">
    <g>
      <rect class="st19" x="474.4" y="854.2" width="77.6" height="21.9"/>
      <g class="st15">
        <path class="st19" d="M474.4,854.2s43,1.1,77.6,1.6v20.3s-76.7-16.2-77.5-16.5v-5.3h0Z"/>
      </g>
    </g>
  </g>
  <path class="st25" d="M532.9,939s.5-.8,1.5-2c1-1.2,2.6-2.8,4.8-4.4,1.1-.8,2.3-1.6,3.7-2.3,1.4-.7,3-1.3,4.6-1.6.8-.2,1.7-.4,2.6-.5.9-.1,1.8-.2,2.7-.1,1.8,0,3.5,0,5.3,0,3.5,0,7.1,0,10.4.2,3.3.2,6.4.5,9,.8,5.2.5,8.8,1.3,8.8,1.3,0,0,.1,0,.1.2,0,0,0,.1-.1.1,0,0-3.5.6-8.9.8-2.7.1-5.8,0-9,0-3.3-.2-6.8-.6-10.3-.9-1.7-.2-3.5-.3-5.2-.4-.8,0-1.6-.1-2.5,0-.8,0-1.6.1-2.4.2-1.6.2-3,.7-4.4,1.2-1.4.6-2.6,1.2-3.7,1.9-2.2,1.4-3.9,2.8-5,3.9-1.1,1.1-1.6,1.8-1.6,1.8,0,0-.2,0-.2,0,0,0,0-.1,0-.2h0Z"/>
  <g class="st24">
    <g class="st20">
      <path class="st22" d="M534.9,936.8s1.5-2,4.7-4c.8-.5,1.7-1,2.7-1.5,1-.4,2.1-.8,3.3-1,1.2-.3,2.5-.4,3.8-.4h3.6c1.2,0,2.4,0,3.7,0,1.2,0,2.4,0,3.5,0,2.3,0,4.4.2,6.2.4,3.7.4,6.1,1,6.1,1,0,0,.1.1.1.2,0,0,0,0-.1.1,0,0-2.4.7-6.1,1.1-1.8.2-4,.3-6.3.3-1.2,0-2.4,0-3.6-.2-1.2-.1-2.4-.2-3.7-.4-1.2-.1-2.5-.2-3.7-.3-1.1,0-2.2-.2-3.3,0-1.1,0-2.1.4-3.1.6-1,.3-1.9.6-2.7,1-1.6.8-2.9,1.6-3.7,2.2-.9.6-1.3,1-1.3,1,0,0-.2,0-.2,0,0,0,0-.2,0-.2"/>
    </g>
  </g>
  <path class="st25" d="M497.1,939.2s-.5-.7-1.6-1.8c-1.1-1-2.7-2.5-5-3.9-1.1-.7-2.4-1.3-3.7-1.9-1.4-.5-2.9-1-4.4-1.2-.8-.1-1.6-.2-2.4-.2-.8,0-1.6,0-2.5,0-1.7,0-3.5.3-5.2.4-3.5.3-7,.7-10.3.9-3.3.2-6.4.2-9.1,0-5.3-.2-8.9-.8-8.9-.8,0,0-.1,0-.1-.2,0,0,0-.1.1-.1,0,0,3.5-.8,8.8-1.3,2.6-.3,5.7-.6,9-.8,3.3-.1,6.8-.1,10.4-.2,1.8,0,3.5,0,5.3,0,.9,0,1.8,0,2.7.1.9,0,1.8.3,2.6.5,1.7.4,3.2,1,4.6,1.7,1.4.7,2.6,1.5,3.7,2.3,2.2,1.6,3.7,3.2,4.7,4.4,1,1.2,1.5,2,1.5,2,0,0,0,.2,0,.2,0,0-.1,0-.2,0h0Z"/>
  <g class="st5">
    <g class="st17">
      <path class="st22" d="M495.8,937.6s-.4-.4-1.3-1.1c-.9-.7-2.1-1.6-3.7-2.4-.8-.4-1.7-.8-2.7-1.2-1-.3-2-.6-3.1-.8-1.1-.2-2.2-.2-3.3,0-1.2,0-2.5.2-3.7.3-1.2.1-2.5.3-3.7.4-1.2,0-2.4.2-3.6.2-2.4,0-4.5,0-6.4-.3-3.7-.4-6.2-1.1-6.2-1.1-.1,0-.1-.1-.1-.2,0,0,0-.1.1-.1,0,0,2.5-.6,6.2-1,1.9-.2,4-.4,6.3-.4,2.3,0,4.8.2,7.3.1h3.7c1.3,0,2.6.1,3.8.4,2.4.6,4.4,1.7,6,2.8,1.6,1.1,2.7,2.2,3.5,3,.8.8,1.1,1.3,1.1,1.3,0,0,0,.2,0,.2,0,0-.2,0-.2,0"/>
    </g>
  </g>
  <path class="st14" d="M757.9,626.2s13.6,87.2-39.8,154.3c-45.6,57.3-149.9,77-205.4,75.7-44.2-1.1-81.5-7-113.2-16.6-43.3-13-76-32.5-100.5-55-84-77-73.4-188.3-73.4-188.3,0,0-57.4-295.1,225.4-302.7,395.1-10.6,306.9,332.6,306.9,332.6h0Z"/>
  <path class="st14" d="M223.6,603.3s-27-2.5-22.7,29.7,19.7,51.8,40.4,51.8l-17.6-81.5Z"/>
  <path class="st14" d="M758.8,603.3s26.1-10.2,27.3,22.2c1.3,32.4-10.6,54.4-30.9,57.9l3.6-80.1Z"/>
  <path class="st8" d="M693.3,492.6c-13.3-11.8-28.4-21.7-44.5-29.3-19.1-9.2-40.8-13.6-61.8-10.4-2,.5-4.5.8-6.4,1.4-5.7,1.4-11.2,3.6-16.7,6l-.2-.3c2.5-1.6,5-3.4,7.7-4.7,1.2-.6,2.8-1.5,4.1-2,24.8-10.8,51.3-4,74.5,7.8,10.7,5.4,20.8,12.1,30.1,19.5,4.7,3.7,9.2,7.6,13.5,11.8l-.3.3h0Z"/>
  <path class="st8" d="M310.5,488.7c20-18,43.9-32.5,70.1-39,16.3-4.2,33.8-3.5,49.1,3.8,1.3.5,2.8,1.5,4,2.1,2.6,1.4,5.1,3.2,7.5,4.9l-.2.3c-5.4-2.6-10.8-4.9-16.5-6.5-1.9-.6-4.4-1-6.4-1.5-33.5-6.2-65.9,7-93.3,25.5-4.9,3.4-9.7,6.9-14.3,10.7l-.3-.3h0Z"/>
  <path class="st12" d="M439,703.5s1.9,1.4,5.1,3.9c.8.6,1.7,1.3,2.7,2,1,.8,2.1,1.3,3.3,2,1.2.7,2.4,1.4,3.7,2.2.6.4,1.3.8,2,1.2.7.3,1.5.7,2.2,1,1.5.7,3.1,1.5,4.7,2.2.8.4,1.6.7,2.5,1,.9.3,1.8.6,2.7.9.9.3,1.8.6,2.7.9.9.3,1.8.6,2.8.8,1.9.4,3.9.8,5.9,1.3,1,.3,2,.4,3,.5,1,0,2.1.2,3.1.3,1,.1,2.1.2,3.1.4,1,0,2.1,0,3.2,0,2.1,0,4.2.2,6.3,0,2.1-.2,4.2-.3,6.4-.5,2.1-.2,4.2-.7,6.3-1.2,1-.2,2.1-.4,3.1-.7l3-1c2-.7,4-1.2,5.9-2,1.9-.8,3.8-1.4,5.7-2,1.9-.6,3.7-1.4,5.5-1.9,1.8-.6,3.7-1.1,5.4-1.7,1.7-.6,3.5-1.2,5.1-1.7,1.7-.5,3.2-1.2,4.8-1.7,1.6-.5,3.1-1.1,4.5-1.6,1.4-.6,2.8-1.1,4.1-1.6,2.6-.9,5-1.7,6.9-2.5,1.9-.7,3.5-1.3,4.6-1.6,1.1-.3,1.8-.5,1.8-.5l1.2,1.4s-.3.6-.8,1.6c-.6,1-1.4,2.5-2.6,4.3-.6.9-1.2,2-2.1,3-.8,1-1.7,2.1-2.8,3.2-1,1.2-2.1,2.3-3.3,3.5-1.2,1.2-2.6,2.3-4,3.5-1.4,1.2-2.9,2.5-4.6,3.6-1.7,1.1-3.4,2.2-5.3,3.3-.9.5-1.8,1.2-2.8,1.7-1,.5-2,1-3,1.4-2.1.9-4.2,1.9-6.4,2.6-4.6,1.3-9.3,2.4-14.3,2.7-1.2.1-2.5.3-3.7.4-1.2,0-2.5,0-3.8,0-2.5,0-5,.3-7.5.1-2.5-.1-5-.3-7.5-.4-2.5-.2-4.9-.7-7.3-1-1.2-.2-2.4-.3-3.6-.6-1.2-.3-2.3-.6-3.5-1-1.1-.3-2.3-.7-3.4-1-1.1-.3-2.3-.6-3.3-1.1-2.1-.9-4.2-1.7-6.3-2.5-1-.4-2-.9-3-1.4-.9-.5-1.9-1-2.8-1.5-.9-.5-1.8-1-2.7-1.5-.9-.5-1.8-1-2.5-1.6-1.6-1.1-3.1-2.2-4.6-3.3-.7-.5-1.5-1.1-2.1-1.6-.7-.5-1.3-1.2-1.9-1.7-1.2-1.1-2.4-2.2-3.5-3.2-1-1-2.1-1.9-2.9-2.8-.8-.9-1.5-1.8-2.2-2.6-2.6-3.1-4.1-4.9-4.1-4.9l1.3-1.4h0Z"/>
  <path class="st13" d="M412.1,604.7c0,20.3-16.5,36.8-36.8,36.8s-36.8-16.5-36.8-36.8,16.5-36.8,36.8-36.8,36.8,16.5,36.8,36.8h0Z"/>
  <path class="st13" d="M666.2,607.2c0,20.3-16.5,36.8-36.8,36.8s-36.8-16.5-36.8-36.8,16.5-36.8,36.8-36.8,36.8,16.5,36.8,36.8h0Z"/>
  <path class="st9" d="M363.9,935.5l-89.9,328.3,70.2,43s84.6-220.4,19.7-371.3h0Z"/>
  <path class="st9" d="M668.7,934.2l105.8,343.2-79.1,44s-91.6-236.4-26.7-387.2Z"/>
  <path class="st18" d="M761.6,607.2s24.7-149.2-67.5-244.1c-76.7-69.8-206.6-90.1-301.9-34.7,0,0-21.3-141.5,132.8-141.5s209.6,121.2,230.1,208c20.4,86.7,11.2,210.4,11.2,210.4l-4.7,1.9Z"/>
  <path class="st18" d="M396.8,326.5s-95.4-28.7-141.9,70.6c-21,44.7-28.9,137.8-29.8,213.4,0,0-6.1-31.7-4.9-73.9s3.4-126.9,32.4-198.1c29.7-73,148.3-95,142.7-14l1.5,2Z"/>
  <polygon class="st10" points="458.1 905.5 507.3 946.1 518.1 965.2 530.1 946.1 572.2 905.5 587.9 912.7 586 990.9 505 1034.2 446 999.3 438.6 912.7 458.1 905.5"/>
  <path class="st21" d="M427.1,946.1s59.6,57.3,89,55.9c28-1.3,89-55.9,89-55.9l-12.5,312.4h-154.9l-10.6-312.4h0Z"/>
  <path class="st3" d="M458.1,905.5l49.2,40.7s-10,10.5-5.1,33.5l-57.3-33.5"/>
  <path class="st3" d="M575.2,903.3l-45.3,42.8s10,10.5,5.1,33.5l57.3-33.5"/>
  <path class="st9" d="M444,905.9l14.1,642s-68.6,19.6-147.5-14c0,0,118.2-447.6,53.3-598.4,0,0,49.7-29.6,80.1-29.6h0Z"/>
  <path class="st9" d="M587.9,905.9l-14.1,642s68.6,19.6,147.5-14c0,0-117.4-448.9-52.5-599.7,0,0-50.4-28.3-80.8-28.3h0Z"/>
  <path class="st7" d="M444,905.9s-26.6-3.5-40.6,10.1l8.7,109.1,21.4,11-15.1,21.2,32.7,167-7-318.4h0Z"/>
  <path class="st7" d="M587.9,905.9s27.8-3.5,41.8,10.1l-8.7,109.1-21.3,11,15.1,21.2-34,174,7.2-325.4h0Z"/>
  <circle class="st11" cx="649.6" cy="591.5" r="115.1"/>
  <path class="st4" d="M471.8,569.4s29-29,67.9,0"/>
  <path class="st11" d="M670,476.2l-76.1,213.5c13.8,7.9,29.4,13,46.1,14.5l74.9-210.3-45-17.8h0Z"/>
  <path class="st11" d="M740.3,517.2l-66,185.3c-7.5,1.5-15.3,2.4-23.3,2.4s-2.1,0-3.1,0l73.4-206.1c7.1,5.4,13.4,11.7,19,18.6h0Z"/>
  <path class="st11" d="M472.8,584.3c0,55.6-39.4,102-91.8,112.8-7.5,1.5-15.3,2.4-23.3,2.4s-2.1,0-3.1,0c-2.6,0-5.2-.2-7.7-.4-16.7-1.5-32.3-6.6-46.1-14.5-34.7-19.8-58.1-57.2-58.1-100,0-63.6,51.5-115.1,115.1-115.1s12.9.5,19.1,1.6c16.4,2.7,31.7,8.9,45,17.8,2.1,1.5,4.2,3,6.2,4.6,7.1,5.4,13.4,11.7,19,18.6,16.1,19.8,25.8,45.1,25.8,72.6h0Z"/>
  <circle class="st1" cx="650.8" cy="590.5" r="115.1"/>
  <path class="st11" d="M377.5,470.7l-76.1,213.6c13.8,7.9,29.4,13,46.1,14.5l74.9-210.3-45-17.8Z"/>
  <path class="st11" d="M447.7,511.7l-66,185.3c-7.5,1.5-15.3,2.4-23.3,2.4s-2.1,0-3.1,0l73.4-206.2c7.1,5.4,13.4,11.7,19,18.6h0Z"/>
  <circle class="st0" cx="357.7" cy="584.3" r="115.1"/>
</svg>