<?xml version="1.0" encoding="UTF-8"?>
<svg id="Capa_1" xmlns="http://www.w3.org/2000/svg" version="1.1" xmlns:xlink="http://www.w3.org/1999/xlink" viewBox="0 0 1002 1002">
  <!-- Generator: Adobe Illustrator 29.1.0, SVG Export Plug-In . SVG Version: 2.1.0 Build 142)  -->
  <defs>
    <style>
      .st0 {
        fill: #895f49;
      }

      .st1 {
        clip-path: url(#clippath-4);
      }

      .st2 {
        fill: #ea5e5f;
      }

      .st3, .st4, .st5, .st6 {
        fill: none;
      }

      .st7 {
        fill: #502911;
      }

      .st4 {
        stroke-miterlimit: 10;
        stroke-width: 2px;
      }

      .st4, .st5, .st6 {
        stroke: #6b052f;
      }

      .st5 {
        stroke-miterlimit: 10;
        stroke-width: 2px;
      }

      .st8 {
        fill: #f5af98;
      }

      .st9 {
        clip-path: url(#clippath-1);
      }

      .st10 {
        fill: #fff;
        isolation: isolate;
        opacity: .1;
      }

      .st6 {
        stroke-miterlimit: 10;
        stroke-width: 2px;
      }

      .st11 {
        clip-path: url(#clippath-5);
      }

      .st12 {
        fill: #bc6f55;
      }

      .st13 {
        fill: #ef8066;
      }

      .st14 {
        clip-path: url(#clippath-3);
      }

      .st15 {
        opacity: .5;
      }

      .st16 {
        fill: #dca15f;
      }

      .st17 {
        clip-path: url(#clippath-2);
      }

      .st18 {
        fill: #eb6d54;
      }

      .st19 {
        fill: #bfa377;
      }

      .st20 {
        clip-path: url(#clippath);
      }
    </style>
    <clipPath id="clippath">
      <rect class="st3" x="500.2" y="744.6" width="74.8" height="21.1"/>
    </clipPath>
    <clipPath id="clippath-1">
      <rect class="st3" x="500.2" y="744.6" width="74.8" height="21.1"/>
    </clipPath>
    <clipPath id="clippath-2">
      <rect class="st3" x="558.5" y="817.5" width="36.5" height="7"/>
    </clipPath>
    <clipPath id="clippath-3">
      <rect class="st3" x="558.5" y="817.5" width="36.5" height="7"/>
    </clipPath>
    <clipPath id="clippath-4">
      <rect class="st3" x="484.5" y="817.5" width="36.7" height="7.6"/>
    </clipPath>
    <clipPath id="clippath-5">
      <rect class="st3" x="484.5" y="817.5" width="36.7" height="7.6"/>
    </clipPath>
  </defs>
  <path class="st19" d="M479,1262.4c-348.7-23.4-454-231.3-424.7-317,12.7-37.4,48.5-66,86-92.3,0,0,0,0,0,0,48.5-34,100.1-64,109.1-104.2,12.6-55.8-143.5-472.7-16.6-614.1,35-39,71.4-57.1,158.9-40.9,0,0,171.3-109.5,349.4-16.4,16.6,8.7,33.4,19.1,50.4,31.5,175.9,129-11.9,577.2,15.4,649.5,9.4,24.8,34.1,44.6,62.5,65,0,0,0,0,0,0,54.3,39.2,121.7,80.7,118.3,163.9-5.2,126.7-160.1,298.2-508.8,274.8h0Z"/>
  <path class="st0" d="M232.8,134.8c35-39,71.4-57.1,158.9-40.9,0,0,58.8-151.1,349.4-16.4,0,0-335.7-55.9-338.4,96.8,0,0-59.5-125.7-169.9-39.5h0Z"/>
  <polygon class="st8" points="500.2 741.8 575 743.3 575 794.4 500.2 794.4 500.2 741.8"/>
  <path class="st8" d="M781.7,1221.7c-51.5-10.1-130.7-208.6-136.4-254.8-.9-7.1-1.3-11.2-1.3-11.2l-207.7-1.7s0,1.7-.2,4.7c-1.3,30-78.3,261.1-120.6,252-45.4-9.7,45-45.8,60.5-258,5-69.3,17.8-129.8,17.8-129.8l105.7-31.1h75.4c0,0,110,29.1,110,29.1,0,0,15.6,66.2,20.7,139.1,6.3,91.4,113.5,238.4,76.1,261.6h0Z"/>
  <g class="st15">
    <rect class="st13" x="500.2" y="744.6" width="74.8" height="21.1"/>
    <g class="st20">
      <g>
        <rect class="st13" x="500.2" y="744.6" width="74.8" height="21.1"/>
        <g class="st9">
          <path class="st13" d="M500.2,744.6s41.5,1,74.8,1.5v19.6s-74-15.6-74.8-15.9v-5.2h0Z"/>
        </g>
      </g>
    </g>
  </g>
  <path class="st18" d="M556.7,826.4s.5-.7,1.4-1.9c1-1.1,2.5-2.7,4.6-4.2,1-.8,2.3-1.5,3.6-2.2,1.4-.6,2.8-1.2,4.5-1.6.8-.2,1.6-.4,2.5-.5.9-.1,1.7-.2,2.6-.1,1.7,0,3.4,0,5.1,0,3.4,0,6.8,0,10,.2,3.2.2,6.2.5,8.7.8,5.1.5,8.5,1.3,8.5,1.3,0,0,.1,0,.1.2,0,0,0,.1-.1.1,0,0-3.4.5-8.6.8-2.6.1-5.5,0-8.7,0-3.2-.2-6.6-.6-10-.9-1.7-.2-3.4-.3-5-.4-.8,0-1.6,0-2.4,0-.8,0-1.5.1-2.3.2-1.5.2-2.9.7-4.2,1.2-1.3.5-2.5,1.2-3.6,1.8-2.1,1.3-3.8,2.7-4.8,3.7-1.1,1-1.6,1.7-1.6,1.7,0,0-.2,0-.2,0,0,0,0-.1,0-.2h0Z"/>
  <g class="st15">
    <g class="st17">
      <g class="st14">
        <path class="st16" d="M558.6,824.2s1.5-1.9,4.6-3.9c.8-.5,1.7-1,2.6-1.4,1-.4,2-.8,3.2-1,1.1-.3,2.4-.3,3.6-.3h3.5c1.2,0,2.4,0,3.5,0,1.2,0,2.3,0,3.4,0,2.2,0,4.2.2,6,.4,3.5.4,5.9,1,5.9,1,0,0,.1,0,.1.2,0,0,0,0-.1.1,0,0-2.3.7-5.9,1-1.8.2-3.9.3-6.1.3-1.1,0-2.3,0-3.4-.2-1.2-.1-2.3-.2-3.5-.4-1.2-.1-2.4-.2-3.5-.3-1.1,0-2.1-.2-3.2,0-1,0-2,.3-3,.6s-1.8.6-2.6,1c-1.6.7-2.8,1.5-3.6,2.2-.8.6-1.3,1-1.3,1,0,0-.2,0-.2,0,0,0,0-.2,0-.2"/>
      </g>
    </g>
  </g>
  <path class="st18" d="M522.2,826.5s-.5-.7-1.5-1.7c-1-1-2.7-2.4-4.8-3.7-1.1-.7-2.3-1.3-3.6-1.8-1.3-.5-2.8-1-4.3-1.2-.8-.1-1.5-.2-2.3-.2-.8,0-1.6,0-2.4,0-1.6,0-3.4.3-5,.4-3.4.3-6.8.7-10,.9-3.2.1-6.2.2-8.7,0-5.1-.2-8.5-.8-8.5-.8,0,0-.1,0-.1-.2,0,0,0-.1.1-.1,0,0,3.4-.7,8.5-1.3,2.5-.2,5.5-.6,8.7-.8,3.2-.1,6.6,0,10-.2,1.7,0,3.4,0,5.1,0,.9,0,1.7,0,2.6.1.9,0,1.7.2,2.5.5,1.6.4,3.1,1,4.5,1.6,1.3.7,2.5,1.4,3.6,2.2,2.1,1.5,3.6,3.1,4.6,4.2,1,1.1,1.4,1.9,1.4,1.9,0,0,0,.2,0,.2,0,0-.2,0-.2,0h0Z"/>
  <g class="st15">
    <g class="st1">
      <g class="st11">
        <path class="st16" d="M521,825s-.4-.4-1.2-1.1c-.8-.6-2-1.5-3.6-2.3-.8-.4-1.6-.8-2.6-1.1-.9-.3-1.9-.6-3-.8-1-.2-2.1-.2-3.2,0-1.2,0-2.4.2-3.5.3-1.2.1-2.4.2-3.6.4-1.2,0-2.4.1-3.5.2-2.3,0-4.4,0-6.2-.3-3.6-.4-6-1-6-1,0,0-.1,0-.1-.2,0,0,0,0,.1,0,0,0,2.4-.6,6-1,1.8-.2,3.9-.4,6.1-.4,2.2,0,4.6.2,7,.1h3.6c1.3,0,2.5.1,3.7.4,2.3.5,4.3,1.6,5.8,2.7,1.5,1,2.6,2.1,3.3,2.9.7.8,1.1,1.2,1.1,1.2,0,0,0,.2,0,.2,0,0-.2,0-.2,0"/>
      </g>
    </g>
  </g>
  <path class="st8" d="M773.6,524.7s13.2,84.1-38.4,148.8c-44,55.2-144.5,74.3-198,73-42.6-1-78.6-6.8-109.1-16-41.8-12.5-73.2-31.3-96.9-53-81-74.2-70.8-181.6-70.8-181.6,0,0-55.3-284.5,217.3-291.9,380.9-10.2,296,320.7,296,320.7h0Z"/>
  <path class="st8" d="M263.2,502.1s-25.7-4.8-24.5,26.5c1.2,31.3,14.3,51.5,34.1,53.3l-9.6-79.8h0Z"/>
  <path class="st8" d="M774.5,502.6s25.1-9.8,26.4,21.4c1.2,31.3-10.2,52.5-29.8,55.8l3.5-77.3Z"/>
  <path class="st7" d="M711.3,395.9c-17.2-14.9-37-27.4-58.7-34.5-10.8-3.5-22-4.9-33.3-4.7-2.4.1-6,.3-8.4.7l-2.1.2-2.1.4c-7,1.2-13.6,3.7-20.2,6.6l-.2-.3c2.4-1.6,4.8-3.3,7.4-4.5,1.2-.6,2.7-1.4,3.9-1.9,24-10.4,49.5-3.9,71.8,7.5,10.3,5.2,20,11.6,29,18.9,4.5,3.6,8.9,7.4,13,11.4l-.3.3h0Z"/>
  <path class="st7" d="M342.2,392.1c19.3-17.4,42.3-31.4,67.6-37.7,15.7-4.1,32.7-3.4,47.4,3.6,1.2.5,2.7,1.5,3.9,2,2.5,1.3,5,3.1,7.3,4.8l-.2.3c-6.5-3.1-13-5.8-20-7.2-9.5-2.2-19.5-2.3-29.3-1.4-17,1.8-33.2,8.3-48,16.5-10,5.5-19.6,12-28.4,19.3l-.3-.3h0Z"/>
  <path class="st2" d="M466.2,599.3s1.8,1.4,4.9,3.7c.8.6,1.7,1.2,2.6,2,.9.7,2,1.3,3.2,2,1.1.7,2.3,1.4,3.6,2.1.6.4,1.2.8,1.9,1.1.7.3,1.4.7,2.2,1,1.5.7,3,1.4,4.5,2.1.8.4,1.6.7,2.5,1,.8.3,1.7.6,2.6.8.9.3,1.7.6,2.6.9.9.3,1.8.6,2.7.8,1.8.4,3.7.8,5.6,1.2.9.3,1.9.4,2.9.5,1,0,2,.2,3,.3,1,.1,2,.2,3,.3,1,0,2,0,3.1,0,2,0,4.1.2,6.1,0,2-.2,4.1-.3,6.1-.5,2-.2,4.1-.7,6.1-1.1,1-.2,2-.4,3-.7l2.9-1c1.9-.7,3.8-1.1,5.7-1.9,1.8-.7,3.7-1.4,5.5-2,1.8-.6,3.5-1.3,5.3-1.8,1.8-.5,3.5-1,5.2-1.7,1.7-.6,3.3-1.1,4.9-1.7,1.6-.5,3.1-1.2,4.6-1.7,1.5-.5,3-1,4.4-1.5,1.4-.5,2.7-1.1,3.9-1.5,2.5-.9,4.8-1.6,6.7-2.4,1.9-.7,3.4-1.2,4.5-1.5,1.1-.3,1.7-.5,1.7-.5l1.2,1.3s-.3.5-.8,1.5c-.5,1-1.4,2.4-2.5,4.2-.6.8-1.2,1.9-2,2.9-.8,1-1.7,2-2.7,3.1-1,1.1-2,2.2-3.2,3.4-1.2,1.1-2.5,2.3-3.9,3.4-1.4,1.2-2.8,2.4-4.4,3.5-1.6,1-3.3,2.2-5.1,3.2-.9.5-1.8,1.1-2.7,1.6-1,.4-1.9.9-2.9,1.4-2,.9-4,1.8-6.2,2.5-4.4,1.3-9,2.3-13.8,2.6-1.2.1-2.4.3-3.6.4-1.2,0-2.4,0-3.6,0-2.4,0-4.8.2-7.2.1-2.4-.1-4.8-.2-7.2-.4-2.4-.2-4.8-.7-7.1-1-1.2-.2-2.3-.3-3.5-.6-1.1-.3-2.3-.6-3.4-.9-1.1-.3-2.2-.6-3.3-.9s-2.2-.6-3.2-1.1c-2.1-.8-4.1-1.7-6.1-2.5-1-.4-2-.8-2.9-1.4-.9-.5-1.8-1-2.7-1.5-.9-.5-1.8-1-2.6-1.5-.9-.5-1.7-.9-2.5-1.5-1.5-1.1-3-2.2-4.4-3.2-.7-.5-1.4-1-2.1-1.5-.7-.5-1.3-1.1-1.9-1.6-1.2-1.1-2.3-2.1-3.3-3.1-1-1-2.1-1.8-2.8-2.7-.8-.9-1.5-1.7-2.1-2.5-2.5-3-4-4.7-4-4.7l1.2-1.3h0Z"/>
  <path class="st7" d="M440.2,504c0,19.6-15.9,35.5-35.5,35.5s-35.5-15.9-35.5-35.5,15.9-35.5,35.5-35.5,35.5,15.9,35.5,35.5h0Z"/>
  <path class="st7" d="M685.3,506.4c0,19.6-15.9,35.5-35.5,35.5s-35.5-15.9-35.5-35.5,15.9-35.5,35.5-35.5,35.5,15.9,35.5,35.5Z"/>
  <path class="st19" d="M402.6,209.6s208.7-112.1,329.9,28.5c86.6,100.4,62.7,202.7,50.2,238.6h0c-.9,2.8-1.8,5.1-2.6,7-1.6,4.2-2.7,6.4-2.7,6.4,0,0,.1-3.9,0-10.6-.8-27.5-6.5-102.7-44.9-153-47.7-62.6-191.1-10.4-247.5-23.4-56.4-13-82.4-80.6-82.4-80.6v-12.9s0,0,0,0Z"/>
  <path class="st19" d="M251.7,498s-2.6-20.8-2.1-51.4c.6-40.7,6.5-98.7,31.2-147.5,25.5-50.8,41.2-91.8,121.9-93.3,0,0-1.5,19-7.9,40.4-6.6,21.9-22.5,25.5-42.8,34.6-103.3,37.9-101.8,130.7-84,217.2h-16.2,0Z"/>
  <path class="st0" d="M400.9,226.5c-.2-4.2-.2-8.5,0-12.9,0,0,20.1,60.8,63.1,78.2,43,17.4,185.9-60.4,261.9-23.4,65.6,32,58.3,174,55.1,212.3h0c-.5,6.1-.9,9.6-.9,9.6l-1.7-2.6-2.8-4.2c-.8-27.5-6.5-102.7-44.9-153-47.7-62.6-191.1-10.4-247.5-23.4-56.4-13-82.4-80.6-82.4-80.6h0Z"/>
  <path class="st0" d="M247.9,450.6c-25.5-88-2.9-148.4,31.2-167.5,37.7-21.1,59.5-16,75.5-20,30.4-7.6,44.2-43.5,46.2-52.2l-7.7,39.3c-6.6,21.9-18.2,26.4-38.5,35.6-56.6,25.4-105,31-88.3,216.2-7.7-18.7-13.8-35.8-18.3-51.4h0Z"/>
  <path class="st12" d="M457.4,802.7l-64,20.8s51.1,336.1,3.3,475c0,0,177.4,76.2,281,0,0,0-72.1-171.1,7.2-477.6l-61.9-16.4-82.7,78.9-82.9-80.7h0Z"/>
  <polygon class="st12" points="393.4 823.5 358.7 909.4 413.5 970.5 393.4 823.5"/>
  <path class="st12" d="M685,820.9c-.1.6-25.3,63-25.5,63.6-.2.9-5.2,85-5.3,86,20.6-20.3,41.1-40.7,61.7-61.1l-30.9-88.5h0Z"/>
  <circle class="st10" cx="665.8" cy="517.6" r="115.1"/>
  <path class="st5" d="M484.8,496.5s29-29,67.8,0"/>
  <path class="st10" d="M683,403.3l-76.1,213.5c13.8,7.9,29.4,13,46.1,14.5l74.9-210.3-45-17.8h0Z"/>
  <path class="st10" d="M753.2,444.3l-66,185.3c-7.5,1.5-15.3,2.4-23.3,2.4s-2.1,0-3.1,0l73.4-206.1c7.1,5.4,13.4,11.6,19,18.6h0Z"/>
  <path class="st10" d="M485.8,511.4c0,55.6-39.4,102-91.8,112.8-7.5,1.5-15.3,2.4-23.3,2.4s-2.1,0-3.1,0c-2.6,0-5.2-.2-7.7-.4-16.7-1.5-32.3-6.6-46.1-14.5-34.7-19.8-58.1-57.2-58.1-100,0-63.6,51.5-115.1,115.1-115.1s12.9.5,19.1,1.6c16.4,2.7,31.7,8.9,45,17.8,2.1,1.5,4.2,3,6.2,4.6,7.1,5.4,13.4,11.6,19,18.6,16.1,19.8,25.8,45.1,25.8,72.6h0Z"/>
  <circle class="st6" cx="663.7" cy="517.7" r="115.1"/>
  <path class="st10" d="M390.5,397.8l-76.1,213.6c13.8,7.9,29.4,13,46.1,14.5l74.9-210.3-45-17.8Z"/>
  <path class="st10" d="M460.7,438.8l-66,185.3c-7.5,1.5-15.3,2.4-23.3,2.4s-2.1,0-3.1,0l73.4-206.1c7.1,5.4,13.4,11.6,19,18.6h0Z"/>
  <circle class="st4" cx="370.7" cy="511.4" r="115.1" transform="translate(-253 411.9) rotate(-45)"/>
</svg>