<?xml version="1.0" encoding="UTF-8"?>
<svg id="Capa_1" xmlns="http://www.w3.org/2000/svg" version="1.1" xmlns:xlink="http://www.w3.org/1999/xlink" viewBox="0 0 1002 1002">
  <!-- Generator: Adobe Illustrator 29.1.0, SVG Export Plug-In . SVG Version: 2.1.0 Build 142)  -->
  <defs>
    <style>
      .st0 {
        stroke: #d3a981;
        stroke-linecap: round;
        stroke-width: 2.6px;
      }

      .st0, .st1, .st2 {
        fill: none;
      }

      .st0, .st2 {
        stroke-miterlimit: 10;
      }

      .st3 {
        fill: #d69b64;
      }

      .st4 {
        fill: #2d2d2d;
      }

      .st5 {
        fill: #440a0e;
      }

      .st6 {
        fill: #262626;
      }

      .st7 {
        fill: #502911;
      }

      .st8 {
        fill: #f5af98;
      }

      .st9 {
        clip-path: url(#clippath-1);
      }

      .st10 {
        fill: #a5a3ca;
      }

      .st11 {
        clip-path: url(#clippath-3);
      }

      .st12 {
        fill: #efd6b9;
      }

      .st2 {
        stroke: #2c2c3a;
        stroke-width: 4px;
      }

      .st13 {
        clip-path: url(#clippath-2);
      }

      .st14 {
        fill: #1b1b1c;
      }

      .st15 {
        fill: #fff;
        isolation: isolate;
        opacity: .4;
      }

      .st16 {
        clip-path: url(#clippath);
      }

      .st17 {
        opacity: .4;
      }
    </style>
    <clipPath id="clippath">
      <rect class="st1" x="468.7" y="661.3" width="405.5" height="224.1"/>
    </clipPath>
    <clipPath id="clippath-1">
      <polygon class="st1" points="468.7 884.1 871.3 884.1 874.2 661.3 468.7 665.1 468.7 884.1"/>
    </clipPath>
    <clipPath id="clippath-2">
      <rect class="st1" x="521.6" y="881.1" width="88" height="24.8"/>
    </clipPath>
    <clipPath id="clippath-3">
      <rect class="st1" x="521.6" y="881.1" width="88" height="24.8"/>
    </clipPath>
  </defs>
  <polygon class="st8" points="521.6 939.7 358.8 968 394 1190.7 737.5 1197.2 771.7 968 609.5 939.7 521.6 939.7"/>
  <polygon class="st10" points="508.4 941.2 555.9 1003 570.2 1043.4 583.1 1003 625.6 941.5 671.5 946.7 687.8 1438.7 415.4 1438.7 461.3 946.5 508.4 941.2"/>
  <path class="st8" d="M887.7,573c.2,14-.5,27.9-2.4,41.7,0,0-5.5,44.9-31.5,98.1-15.2,31.2-37.5,65.3-69.8,94.8-47.5,43.3-116.6,76.8-216.9,76.8s-191.4-33.2-241.2-76.3c-29.5-25.5-49.9-54.3-64-81.8-29.6-57.7-31.4-109-31.4-109,0,0-.8-8.7-.4-23.7,1.4-43.2,13.3-139.1,86.5-230.1,127.9-18.2,348-42.9,479.7-20.3,54.9,65.2,90.1,148.8,91.4,229.8h0Z"/>
  <polygon class="st8" points="521.6 877.9 609.5 879.6 609.5 939.7 521.6 939.7 521.6 877.9"/>
  <g class="st17">
    <g class="st16">
      <g class="st9">
        <path class="st3" d="M871.3,665.1s-141.8,263.8-402.6,208.4c0,0,307.9,87,402.6-208.4"/>
      </g>
    </g>
  </g>
  <g class="st17">
    <g class="st13">
      <g class="st11">
        <path class="st3" d="M521.6,881.1s48.8,1.2,88,1.8v23s-87-18.4-88-18.8v-6.1Z"/>
      </g>
    </g>
  </g>
  <path class="st8" d="M236.5,588.8s-46.3,5.6-32.6,40.8c13.7,35.2,14.3,44.3,23.4,44.9,9.1.6,21.2-2.5,21.2-2.5l-12-83.2h0Z"/>
  <path class="st12" d="M238.3,620.8s-23.7,5.4-8,30l8-30Z"/>
  <path class="st0" d="M238.3,620.8s-23.7,5.4-8,30"/>
  <path class="st8" d="M884.5,579.9s46.3,5.6,32.6,40.8c-13.7,35.2-14.3,44.3-23.4,44.9-9.1.6-21.2-2.5-21.2-2.5l12-83.2h0Z"/>
  <path class="st0" d="M882.7,611.9s23.7,5.4,8,30"/>
  <path class="st14" d="M642.4,499.6c31.9-1.5,63.8,1,95.3,6.2,15.6,2.6,31.2,7.5,46,13.3,3,1.2,5.9,2.5,8.8,3.9l-.2.7c-6.3-.8-12.6-2-18.8-3.2-12.4-2.4-24.8-4.9-37.1-7.9-18.4-4.5-37.1-7.5-56-9.5-12.6-1.4-25.2-2.2-37.9-2.8v-.7h0Z"/>
  <path class="st14" d="M499.5,500.4c-34.8,1.3-69.4,5.8-103.1,14.4-9.2,2-18.6,4-27.9,5.7-6.3,1.2-12.5,2.4-18.9,3.2l-.2-.7c2.9-1.4,5.8-2.6,8.8-3.9,11.7-4.7,24.3-8.7,36.5-11.5,9.4-2,18.9-3.3,28.4-4.6,25.3-3.4,50.9-4.5,76.3-3.4v.7h0Z"/>
  <path class="st4" d="M902,585s-11.3,6.4-14.3-4.6c-2.5-9.1-.3-34.5-5-45.8-26.8-64.6-72.9-185.3-113.3-187.4-56.1-2.9-148.8,131.5-364.2,4.7,0,0-121.2,51.1-167.8,178.6-3.2,8.7,1.6,48.7-.9,58.2s-6.4,4.8-11.6,2.8c0,0-7.1-30.6-11.8-69.1-12.2-101.3-21.9-286,69.3-290.8,125.9-6.6,94.1-169.6,274.5-146.4,180.3,23.2,139,105.6,235.3,62.5,0,0-.5,2.9-1.4,7.4h0c-2.8,14.2-9.8,43.7-19,46.3,3.9-.8,190.8-23.7,130,383.5h0Z"/>
  <path class="st6" d="M792.4,147.8s-.5,2.9-1.4,7.4h0c-80.6,70.8-183-35.4-259.6-39.8-76.6-4.4-103.1,116.3-218.7,134-115.6,17.7-96.4,281.3-96.4,281.3l-3.1-8.2c-12.2-101.3-21.9-286,69.3-290.8,125.9-6.6,94.1-169.6,274.5-146.4,180.3,23.2,139,105.6,235.3,62.5h0Z"/>
  <path class="st6" d="M896.1,530.7l-9.2,4c-26.8-64.6-77-185.3-117.5-187.4-56.1-2.9-148.8,131.5-364.2,4.7,0,0-121.2,51.1-167.8,178.6h-5.7s71.5-195.5,167.2-196.4c0,0,106,62.4,194.4,47.7,88.4-14.7,135.5-60.1,179.7-47.7,44.2,12.4,131.6,154.1,123.2,196.4h0Z"/>
  <path class="st7" d="M472,621.9c0,18.4-14.9,33.3-33.3,33.3s-33.3-14.9-33.3-33.3,14.9-33.2,33.3-33.2,33.3,14.9,33.3,33.2Z"/>
  <path class="st7" d="M701.8,624.2c0,18.4-14.9,33.3-33.3,33.3s-33.3-14.9-33.3-33.3,14.9-33.2,33.3-33.2,33.3,14.9,33.3,33.2Z"/>
  <path class="st5" d="M501.4,771.6s1.6,1.2,4.4,3.3c.7.5,1.5,1.1,2.3,1.7.8.6,1.8,1.1,2.8,1.8,1,.6,2.1,1.2,3.2,1.9.6.3,1.1.7,1.7,1,.6.3,1.3.6,1.9.9,1.3.6,2.6,1.2,4,1.9.7.3,1.4.6,2.2.8.8.2,1.5.5,2.3.8.8.3,1.5.5,2.3.8.8.3,1.6.5,2.4.7,1.6.4,3.3.7,5,1.1.8.2,1.7.3,2.6.4.9,0,1.8.2,2.7.3.9,0,1.8.2,2.7.3.9,0,1.8,0,2.7,0,1.8,0,3.6.2,5.4,0,1.8-.2,3.6-.3,5.5-.5,1.8-.2,3.6-.6,5.4-1,.9-.2,1.8-.3,2.6-.6l2.6-.8c1.7-.6,3.4-1,5-1.7,1.6-.7,3.2-1.2,4.9-1.7,1.6-.5,3.1-1.2,4.7-1.6,1.6-.5,3.1-.9,4.6-1.5,1.5-.5,3-1,4.4-1.5,1.4-.4,2.8-1.1,4.1-1.5,1.3-.5,2.7-.9,3.9-1.3,1.2-.5,2.4-1,3.5-1.3,2.2-.8,4.3-1.4,5.9-2.1,1.7-.6,3-1.1,4-1.4,1-.3,1.5-.4,1.5-.4l1,1.2s-.2.5-.7,1.4c-.5.9-1.2,2.1-2.3,3.7-.5.8-1.1,1.7-1.8,2.5-.7.9-1.5,1.8-2.4,2.7-.8,1-1.8,2-2.8,3-1.1,1-2.2,2-3.5,3-1.2,1-2.5,2.1-3.9,3.1-1.5.9-2.9,1.9-4.5,2.9-.8.5-1.6,1-2.4,1.4-.9.4-1.7.8-2.6,1.2-1.8.8-3.6,1.6-5.5,2.2-3.9,1.1-8,2-12.3,2.3-1,.1-2.1.2-3.2.3-1.1,0-2.2,0-3.2,0-2.2,0-4.3.2-6.4.1-2.1-.1-4.3-.2-6.4-.3-2.1-.2-4.2-.6-6.3-.9-1-.2-2.1-.3-3.1-.5-1-.3-2-.5-3-.8-1-.3-2-.6-2.9-.8-1-.3-1.9-.5-2.8-.9-1.8-.8-3.6-1.5-5.4-2.2-.9-.3-1.7-.8-2.5-1.2-.8-.4-1.6-.9-2.4-1.3-.8-.4-1.6-.9-2.3-1.3-.8-.4-1.5-.8-2.2-1.3-1.4-1-2.7-1.9-3.9-2.8-.6-.5-1.2-.9-1.8-1.3-.6-.5-1.1-1-1.6-1.5-1-1-2-1.9-3-2.7-.9-.9-1.8-1.6-2.5-2.4s-1.3-1.5-1.9-2.2c-2.3-2.7-3.5-4.2-3.5-4.2l1.1-1.2h0Z"/>
  <path class="st4" d="M896.1,570.2s-74.4,240.3-189.4,233.9c-106.9-6-5.7-60.9-160.6-66.3h0c-1.1-.1-2.2-.1-3.3-.1-.4,0-.7,0-1.1,0h0c-90.4,1.9-29.9,59.3-136,67.8-107.8,8.7-168.4-225.6-168.4-225.6l-7.2,8.8c-5.1,223.9,175.5,304.9,285.9,303.7l27.9.2c111.3.6,338.9-14.7,354.8-312.6l-2.5-9.7h0ZM559.3,863.3c-37.6,0-68-23.6-68-52.8s30.5-52.8,68-52.8,68.1,23.6,68.1,52.8-30.5,52.8-68.1,52.8Z"/>
  <path class="st10" d="M358.8,962l-72.6,509.1,99.9,49.2s30-446.9-27.3-558.4h0Z"/>
  <path class="st10" d="M771.7,962l72.6,509.1-99.9,49.2s-30-446.9,27.3-558.4Z"/>
  <path class="st10" d="M472,946.4v776.3s-65.3,19.3-113.2-23c0,0,63.2-587.7,0-737.7l113.2-15.6h0Z"/>
  <path class="st10" d="M658.5,946.4v776.3s65.3,19.3,113.2-23c0,0-63.2-587.7,0-737.7l-113.2-15.6h0Z"/>
  <path class="st15" d="M306.3,575.4h224.6c5.3,0,9.7,4.3,9.7,9.7v83.7c0,5.3-4.3,9.7-9.7,9.7h-224.6c-5.4,0-9.7-4.3-9.7-9.7v-83.7c0-5.3,4.3-9.7,9.7-9.7Z"/>
  <path class="st2" d="M306.3,575.4h224.6c5.3,0,9.7,4.3,9.7,9.7v83.7c0,5.3-4.3,9.7-9.7,9.7h-224.6c-5.4,0-9.7-4.3-9.7-9.7v-83.7c0-5.3,4.3-9.7,9.7-9.7Z"/>
  <path class="st15" d="M585.8,575.4h224.6c5.3,0,9.7,4.3,9.7,9.7v83.7c0,5.3-4.3,9.7-9.7,9.7h-224.6c-5.3,0-9.7-4.3-9.7-9.7v-83.7c0-5.3,4.3-9.7,9.7-9.7Z"/>
  <path class="st2" d="M585.8,575.4h224.6c5.3,0,9.7,4.3,9.7,9.7v83.7c0,5.3-4.3,9.7-9.7,9.7h-224.6c-5.3,0-9.7-4.3-9.7-9.7v-83.7c0-5.3,4.3-9.7,9.7-9.7Z"/>
  <path class="st2" d="M540.3,601.1s15.7,0,37.1,0"/>
  <path class="st2" d="M575.3,585.8s-15.3,9.2-35.1,0"/>
</svg>