<?xml version="1.0" encoding="UTF-8"?>
<svg id="Calque_1" xmlns="http://www.w3.org/2000/svg" version="1.1" viewBox="0 0 800.1 370.5">
  <!-- Generator: Adobe Illustrator 29.1.0, SVG Export Plug-In . SVG Version: 2.1.0 Build 142)  -->
  <defs>
    <style>
      .st0, .st1 {
        fill: #fff;
      }

      .st1 {
        opacity: .4;
      }
    </style>
  </defs>
  <path class="st0" d="M241.8,177.9h81.9c34.6,0,62.7,28.1,62.7,62.7v129.9h-207.2v-129.9c0-34.6,28.1-62.7,62.7-62.7Z"/>
  <path class="st1" d="M490,361.7l-27.7-27.7c-7,10.5-11.1,23-11.1,36.5h37.3c0-3.1.5-6.1,1.4-8.9h0Z"/>
  <path class="st1" d="M545.6,365c.4,1.8.5,3.6.5,5.5h37.3c0-12.4-3.5-24-9.5-33.9l-28.4,28.4h0Z"/>
  <path class="st1" d="M486.1,312.3l29.5,29.5c.6,0,1.2,0,1.8,0,1.9,0,3.8.2,5.5.5l28.4-28.4c-9.9-6-21.5-9.5-33.9-9.5s-22,2.9-31.3,7.9Z"/>
  <path class="st0" d="M283.8,0c-45.1,0-81.6,36.5-81.6,81.6s36.6,81.6,81.6,81.6,81.6-36.6,81.6-81.6S328.9,0,283.8,0ZM293.5,52.3c0-3.3,2.7-6,6-6s6,2.7,6,6v29.3c0,3.3-2.7,6-6,6s-6-2.7-6-6v-29.3ZM261.4,52.3c0-3.3,2.7-6,6-6s6,2.7,6,6v29.3c0,3.3-2.7,6-6,6s-6-2.7-6-6v-29.3ZM328.5,126.7c-12,12-28.1,18.7-45.1,18.7s-33-6.6-45.1-18.7c-2.3-2.3-2.3-6.2,0-8.5s6.2-2.3,8.5,0c9.8,9.8,22.8,15.2,36.6,15.2s26.8-5.4,36.6-15.2c2.4-2.3,6.2-2.3,8.5,0,2.4,2.3,2.4,6.2,0,8.5h0Z"/>
  <path class="st1" d="M542.4,177.9h-54.4c-41,0-74.2,33.2-74.2,74.2v118.4h5.4c0-17.9,4.8-34.6,13.2-49.1-7.9-9.2-7.6-23.1,1.1-31.8l15.8-15.8c9.1-9.1,24-9.1,33.1,0l1,1c.9.9,1.6,1.8,2.3,2.8,10-3.4,20.7-5.3,31.9-5.3,54.2,0,98.2,44.1,98.2,98.2h5.4v-114c0-52.6-37.5-78.6-76.6-78.6h-2Z"/>
  <path class="st1" d="M517.4,3.5c-43.2,0-78.1,35-78.1,78.2s35,78.2,78.1,78.2,78.1-35,78.1-78.2S560.5,3.5,517.4,3.5ZM523,60.7c0-3.1,2.5-5.6,5.6-5.6s5.6,2.5,5.6,5.6v20.3c0,3.1-2.5,5.6-5.6,5.6s-5.6-2.5-5.6-5.6v-20.3ZM500.7,60.7c0-3.1,2.5-5.6,5.6-5.6s5.6,2.5,5.6,5.6v20.3c0,3.1-2.5,5.6-5.6,5.6s-5.6-2.5-5.6-5.6v-20.3ZM562.5,126.7c-12,12-28,18.7-45.1,18.7s-33-6.6-45.1-18.7c-2.4-2.3-2.4-6.2,0-8.5s6.2-2.3,8.5,0c9.8,9.8,22.8,15.2,36.6,15.2s26.8-5.4,36.6-15.2c2.4-2.3,6.2-2.3,8.5,0s2.4,6.2,0,8.5Z"/>
</svg>