<?xml version="1.0" encoding="UTF-8"?>
<svg id="Calque_1" xmlns="http://www.w3.org/2000/svg" version="1.1" viewBox="0 0 14400 14400">
  <!-- Generator: Adobe Illustrator 29.1.0, SVG Export Plug-In . SVG Version: 2.1.0 Build 142)  -->
  <defs>
    <style>
      .st0 {
        fill: #00468e;
      }
    </style>
  </defs>
  <path class="st0" d="M7167.7,7067.9v6.7c0,6,4.9,10.9,10.9,10.9h3.1c1.3.5,2.8.8,4.3.8h28.6c7.6,17.2,24.9,29.3,44.9,29.3,20.1,0,37.3-12,44.9-29.3h201.3c7.6,17.2,24.9,29.3,44.9,29.3,20.1,0,37.3-12,44.9-29.3h12.4c1.5,0,2.9-.3,4.3-.8h8.1c6,0,10.9-4.9,10.9-10.9v-6.7c0-6-4.9-10.9-10.9-10.9v-23c0-7-.9-13.7-2.5-20.2.6-.5.9-1.1.9-1.9v-13.6c0-4-3.2-7.2-7.2-7.2h-3.1c-14.6-24.1-41-40.3-71.3-40.3h-5.8s-15.4-57.4-15.4-57.4c-6.6-18.6-21.1-31.4-37.4-31.4l-118.2,2c-48.3,0-87.5,38.7-88.3,86.8h-1.6c-40.2,0-62.8,28-77.4,66.2h-5.7c-4,0-7.2,3.2-7.2,7.2v30.2s-.9,2.6-.9,2.6h-.9c-6,0-10.9,4.9-10.9,10.9ZM7295.3,6958.2h0,0c0-.1,0,0,0,0ZM7413.5,6872.2l52.1-.9c13.4,0,25.4,10.6,30.8,25.9l16.3,61h-14.7s-6.8-25.2-6.8-25.2c-.8-2.9-3.8-4.6-6.7-3.8-2.9.8-4.6,3.8-3.8,6.7l6,22.3h-62.7s-3.9-14.3-3.9-14.3l-6.8-71.7ZM7312.4,6958.2l-7.5-27.7c-.8-2.9-3.8-4.6-6.7-3.8h-.5c8.4-30.9,36.7-53.7,70.4-53.7l29.7-.5,1.6,17.1-4,.6c-3,.4-5,3.2-4.6,6.2l4.2,28.3c.2,1.3.8,2.4,1.8,3.2-1.3,1.3-1.8,3.3-1.3,5.1l6.8,25.2h-90Z"/>
  <circle class="st0" cx="7430" cy="6909.4" r="16.5"/>
  <rect class="st0" x="7424.1" y="6930.9" width="28.4" height="60.2" rx="12.9" ry="12.9" transform="translate(16966.8 10565.6) rotate(157.6)"/>
  <rect class="st0" x="7475.9" y="6941.7" width="10.1" height="30" rx="4.6" ry="4.6" transform="translate(12024.3 16106.4) rotate(-159.3)"/>
  <circle class="st0" cx="7487.4" cy="6941.1" r="10.6"/>
  <circle class="st0" cx="7321.5" cy="6913.1" r="16.5"/>
  <rect class="st0" x="7315.6" y="6934.6" width="28.4" height="60.2" rx="12.9" ry="12.9" transform="translate(16759.4 10614) rotate(157.6)"/>
  <rect class="st0" x="7333" y="6936.7" width="10.1" height="30" rx="4.6" ry="4.6" transform="translate(-2769.1 6814.6) rotate(-42.7)"/>
</svg>