<?xml version="1.0" encoding="UTF-8"?><svg id="Calque_1" xmlns="http://www.w3.org/2000/svg" viewBox="0 0 14400 14400"><defs><style>.cls-1{fill:#00468e;}</style></defs><path class="cls-1" d="M7167.72,7067.88v6.72c0,5.99,4.86,10.85,10.85,10.85h3.12c1.34.49,2.77.78,4.28.78h28.63c7.62,17.24,24.85,29.28,44.91,29.28,20.06,0,37.3-12.04,44.91-29.28h201.33c7.62,17.24,24.85,29.28,44.91,29.28,20.06,0,37.3-12.04,44.91-29.28h12.44c1.51,0,2.95-.28,4.28-.78h8.12c5.99,0,10.85-4.86,10.85-10.85v-6.72c0-5.99-4.86-10.85-10.85-10.85v-22.99c0-6.97-.87-13.74-2.48-20.21.56-.45.93-1.11.93-1.88v-13.56c0-3.99-3.24-7.23-7.23-7.23h-3.12c-14.56-24.15-41.04-40.3-71.29-40.3h-5.81s-15.37-57.35-15.37-57.35c-6.61-18.59-21.11-31.43-37.37-31.43l-118.15,1.98c-48.28,0-87.49,38.73-88.32,86.81h-1.59c-40.17,0-62.83,28.04-77.38,66.17h-5.69c-4,0-7.23,3.24-7.23,7.23v30.22s-.89,2.56-.89,2.56h-.86c-5.99,0-10.85,4.86-10.85,10.85ZM7295.28,6958.17h-.03v-.11l.03.11ZM7413.52,6872.15l52.1-.87c13.42,0,25.38,10.59,30.83,25.93l16.34,60.96h-14.65s-6.8-25.17-6.8-25.17c-.78-2.9-3.77-4.62-6.67-3.83-2.9.78-4.62,3.77-3.83,6.67l6.04,22.33h-62.67s-3.87-14.32-3.87-14.32l-6.81-71.7ZM7312.41,6958.17l-7.48-27.68c-.78-2.9-3.77-4.62-6.67-3.83l-.49.13c8.37-31.03,36.7-53.88,70.37-53.88l29.74-.5,1.63,17.12-4,.59c-2.97.44-5.02,3.21-4.58,6.18l4.2,28.32c.19,1.3.85,2.41,1.75,3.22-1.26,1.33-1.83,3.25-1.31,5.15l6.81,25.18h-89.96Z"/><circle class="cls-1" cx="7430.01" cy="6909.38" r="16.49"/><rect class="cls-1" x="7424.12" y="6930.91" width="28.36" height="60.24" rx="12.93" ry="12.93" transform="translate(16966.76 10565.57) rotate(157.62)"/><rect class="cls-1" x="7475.88" y="6941.66" width="10.08" height="30.02" rx="4.6" ry="4.6" transform="translate(12024.34 16106.35) rotate(-159.33)"/><circle class="cls-1" cx="7487.45" cy="6941.12" r="10.62"/><circle class="cls-1" cx="7321.54" cy="6913.06" r="16.49"/><rect class="cls-1" x="7315.65" y="6934.59" width="28.36" height="60.24" rx="12.93" ry="12.93" transform="translate(16759.38 10613.96) rotate(157.62)"/><rect class="cls-1" x="7332.99" y="6936.73" width="10.08" height="30.02" rx="4.6" ry="4.6" transform="translate(-2769.12 6814.62) rotate(-42.67)"/></svg>