<?xml version="1.0" encoding="UTF-8"?>
<svg id="Calque_1" xmlns="http://www.w3.org/2000/svg" version="1.1" viewBox="0 0 500 456">
  <!-- Generator: Adobe Illustrator 29.1.0, SVG Export Plug-In . SVG Version: 2.1.0 Build 142)  -->
  <defs>
    <style>
      .st0 {
        fill: #7fa6c9;
      }
    </style>
  </defs>
  <path class="st0" d="M18.2,408.4v6.7c0,6,4.9,10.9,10.9,10.9h3.1c1.3.5,2.8.8,4.3.8h28.6c7.6,17.2,24.8,29.3,44.9,29.3s37.3-12,44.9-29.3h201.3c7.6,17.2,24.9,29.3,44.9,29.3s37.3-12,44.9-29.3h12.4c1.5,0,3-.3,4.3-.8h8.1c6,0,10.9-4.9,10.9-10.9v-6.7c0-6-4.9-10.9-10.9-10.9v-23c0-7-.9-13.7-2.5-20.2.6-.5.9-1.1.9-1.9v-13.6c0-4-3.2-7.2-7.2-7.2h-3.1c-14.6-24.1-41-40.3-71.3-40.3h-5.8l-15.4-57.4c-6.6-18.6-21.1-31.4-37.4-31.4l-118.1,2c-48.3,0-87.5,38.7-88.3,86.8h-1.6c-40.2,0-62.8,28-77.4,66.2h-5.7c-4,0-7.2,3.2-7.2,7.2v30.2l-.9,2.6h-.9c-6,0-10.9,4.9-10.9,10.9h0ZM145.8,298.7h0c0-.1,0,0,0,0ZM264,212.6l52.1-.9c13.4,0,25.4,10.6,30.8,25.9l16.3,61h-14.6l-6.8-25.2c-.8-2.9-3.8-4.6-6.7-3.8-2.9.8-4.6,3.8-3.8,6.7l6,22.3h-62.7l-3.9-14.3-6.8-71.7h0ZM162.9,298.7l-7.5-27.7c-.8-2.9-3.8-4.6-6.7-3.8h-.5c8.4-30.9,36.7-53.8,70.4-53.8l29.7-.5,1.6,17.1-4,.6c-3,.4-5,3.2-4.6,6.2l4.2,28.3c.2,1.3.9,2.4,1.8,3.2-1.3,1.3-1.8,3.2-1.3,5.1l6.8,25.2h-90Z"/>
  <circle class="st0" cx="280.5" cy="249.9" r="16.5"/>
  <rect class="st0" x="274.6" y="271.4" width="28.4" height="60.2" rx="12.9" ry="12.9" transform="translate(-93.1 132.7) rotate(-22.4)"/>
  <rect class="st0" x="316.4" y="292.1" width="30" height="10.1" rx="4.6" ry="4.6" transform="translate(-63.6 502.3) rotate(-69.3)"/>
  <circle class="st0" cx="338" cy="281.6" r="10.6"/>
  <circle class="st0" cx="172" cy="253.6" r="16.5"/>
  <rect class="st0" x="166.1" y="275.1" width="28.4" height="60.2" rx="12.9" ry="12.9" transform="translate(-102.6 91.6) rotate(-22.4)"/>
  <rect class="st0" x="183.5" y="277.3" width="10.1" height="30" rx="4.6" ry="4.6" transform="translate(-148.2 205.1) rotate(-42.7)"/>
</svg>